<svg width="48" height="48" viewBox="0 0 48 48" fill="none" xmlns="http://www.w3.org/2000/svg">
<rect y="-3.8147e-06" width="48" height="48" rx="4" fill="#F2F6FF"/>
<path d="M15.1144 14.9984C14.5678 15.5476 14.5678 16.4462 15.1144 16.9953L31.0178 32.9704C31.5645 33.5195 32.4591 33.5195 33.0058 32.9704C33.5525 32.4212 33.5525 31.5226 33.0058 30.9735L17.1024 14.9984C16.5557 14.4493 15.6611 14.4493 15.1144 14.9984Z" fill="#4D84FF"/>
<path d="M14.994 33.0016C15.5406 33.5507 16.4352 33.5507 16.9819 33.0016L32.8853 17.0265C33.432 16.4774 33.432 15.5788 32.8853 15.0296C32.3386 14.4805 31.4441 14.4805 30.8974 15.0296L14.994 31.0047C14.4473 31.5538 14.4473 32.4524 14.994 33.0016Z" fill="#4D84FF"/>
</svg>
