<svg width="24" height="24" viewBox="0 0 24 24" fill="none" xmlns="http://www.w3.org/2000/svg">
<path d="M20 1H4C3.20435 1 2.44129 1.31607 1.87868 1.87868C1.31607 2.44129 1 3.20435 1 4L1 20C1 20.7956 1.31607 21.5587 1.87868 22.1213C2.44129 22.6839 3.20435 23 4 23H20C20.7956 23 21.5587 22.6839 22.1213 22.1213C22.6839 21.5587 23 20.7956 23 20V4C23 3.20435 22.6839 2.44129 22.1213 1.87868C21.5587 1.31607 20.7956 1 20 1V1ZM8.5 18.41C8.50016 18.471 8.48829 18.5314 8.46506 18.5879C8.44183 18.6443 8.40769 18.6955 8.36461 18.7387C8.32153 18.7819 8.27036 18.8162 8.21401 18.8396C8.15766 18.863 8.09726 18.875 8.03625 18.875H6.06C5.99889 18.8752 5.93835 18.8632 5.88186 18.8399C5.82537 18.8166 5.77404 18.7824 5.73083 18.7392C5.68762 18.696 5.65337 18.6446 5.63006 18.5881C5.60675 18.5317 5.59483 18.4711 5.595 18.41V10.125C5.595 10.0017 5.64399 9.8834 5.7312 9.7962C5.8184 9.70899 5.93667 9.66 6.06 9.66H8.03625C8.15936 9.66033 8.27731 9.70947 8.36425 9.79664C8.45118 9.88381 8.5 10.0019 8.5 10.125V18.41ZM7.0475 8.875C6.67666 8.875 6.31415 8.76503 6.00581 8.55901C5.69746 8.35298 5.45714 8.06014 5.31523 7.71753C5.17331 7.37492 5.13618 6.99792 5.20853 6.63421C5.28087 6.27049 5.45945 5.9364 5.72167 5.67417C5.9839 5.41195 6.31799 5.23337 6.68171 5.16103C7.04542 5.08868 7.42242 5.12581 7.76503 5.26773C8.10764 5.40964 8.40048 5.64996 8.60651 5.95831C8.81253 6.26665 8.9225 6.62916 8.9225 7C8.9225 7.49728 8.72496 7.97419 8.37333 8.32583C8.02169 8.67746 7.54478 8.875 7.0475 8.875ZM18.83 18.4425C18.8302 18.4987 18.8192 18.5544 18.7978 18.6063C18.7764 18.6582 18.7449 18.7054 18.7052 18.7452C18.6654 18.7849 18.6182 18.8164 18.5663 18.8378C18.5144 18.8592 18.4587 18.8702 18.4025 18.87H16.2775C16.2213 18.8702 16.1656 18.8592 16.1137 18.8378C16.0618 18.8164 16.0146 18.7849 15.9748 18.7452C15.9351 18.7054 15.9036 18.6582 15.8822 18.6063C15.8608 18.5544 15.8498 18.4987 15.85 18.4425V14.5612C15.85 13.9812 16.02 12.0212 14.3337 12.0212C13.0275 12.0212 12.7612 13.3625 12.7087 13.965V18.4475C12.7088 18.5598 12.6646 18.6676 12.5858 18.7476C12.5069 18.8276 12.3998 18.8734 12.2875 18.875H10.235C10.1789 18.875 10.1234 18.8639 10.0716 18.8424C10.0198 18.8209 9.97275 18.7894 9.93315 18.7497C9.89356 18.71 9.86218 18.6629 9.84084 18.611C9.81949 18.5591 9.80859 18.5036 9.80875 18.4475V10.0887C9.80859 10.0327 9.81949 9.97711 9.84084 9.92525C9.86218 9.87339 9.89356 9.82625 9.93315 9.78654C9.97275 9.74682 10.0198 9.71531 10.0716 9.69382C10.1234 9.67232 10.1789 9.66125 10.235 9.66125H12.2875C12.4009 9.66125 12.5096 9.70629 12.5898 9.78646C12.67 9.86663 12.715 9.97537 12.715 10.0887V10.8112C13.2 10.0825 13.9188 9.5225 15.4525 9.5225C18.85 9.5225 18.8275 12.695 18.8275 14.4375L18.83 18.4425Z" fill="#4D84FF"/>
</svg>
