<svg width="142" height="24" viewBox="0 0 142 24" fill="none" xmlns="http://www.w3.org/2000/svg">
<g clip-path="url(#clip0_10_4879)">
<path d="M19.4141 20H7.53125V17.7152C7.53125 13.0725 9.17793 8.93688 11.6209 5.79617C11.7475 5.6332 11.8511 5.50004 11.9245 5.40563V0.585938C11.9245 0.262344 12.1868 0 12.5104 0H13.138C14.2975 0 15.2728 0.803438 15.5365 1.88281C18.3803 1.88281 19.7371 4.3873 19.2775 6.46195C19.1501 7.03742 18.6408 7.44793 18.0514 7.44793H16.862V8.14594C16.862 8.63504 17.252 8.94527 17.7287 8.83578C18.9142 8.56344 20 9.45477 20 10.6276C20 11.6332 19.1876 12.4688 18.1588 12.4688H16.7338C17.5846 13.2634 18.1172 14.3945 18.1172 15.6478V16.3879C19.1967 16.6516 20 17.6266 20 18.7858V19.4141C20 19.7377 19.7377 20 19.4141 20Z" fill="#4D84FF" fill-opacity="0.8"/>
<path d="M7.53918 7.03151C7.53918 3.65566 4.98609 0.0491315 0.596719 0.000928424C0.268945 -0.00262626 0 0.259092 0 0.586905V12.4623C0 16.6232 3.37117 19.9966 7.53117 20.0004L7.53125 20.0005V20.0004C7.53356 20.0004 7.53586 20.0005 7.53816 20.0005L7.53918 7.03151Z" fill="#4D84FF" fill-opacity="0.6"/>
<path d="M19.4141 20C19.7377 20 20 19.7377 20 19.4141V18.7858C20 17.6266 19.1967 16.6516 18.1172 16.3879V15.6478C18.1172 14.3945 17.5847 13.2634 16.7338 12.4688H18.1588C19.1876 12.4688 20 11.6332 20 10.6276C20 9.45477 18.9142 8.56344 17.7287 8.83578C17.252 8.94527 16.862 8.63504 16.862 8.14594V7.44793H18.0514C18.6408 7.44793 19.1501 7.03742 19.2775 6.46195C19.7371 4.38734 18.3803 1.88281 15.5365 1.88281C15.2728 0.803477 14.2975 0 13.1381 0H12.5104C12.1868 0 11.9245 0.262344 11.9245 0.585938V20H19.4141Z" fill="#4D84FF"/>
</g>
<path d="M28.9806 11.6C28.9806 9.952 29.3486 8.48 30.0846 7.184C30.8366 5.872 31.8526 4.856 33.1326 4.136C34.4286 3.4 35.8766 3.032 37.4766 3.032C39.3486 3.032 40.9886 3.512 42.3966 4.472C43.8046 5.432 44.7886 6.76 45.3486 8.456H41.4846C41.1006 7.656 40.5566 7.056 39.8526 6.656C39.1646 6.256 38.3646 6.056 37.4526 6.056C36.4766 6.056 35.6046 6.288 34.8366 6.752C34.0846 7.2 33.4926 7.84 33.0606 8.672C32.6446 9.504 32.4366 10.48 32.4366 11.6C32.4366 12.704 32.6446 13.68 33.0606 14.528C33.4926 15.36 34.0846 16.008 34.8366 16.472C35.6046 16.92 36.4766 17.144 37.4526 17.144C38.3646 17.144 39.1646 16.944 39.8526 16.544C40.5566 16.128 41.1006 15.52 41.4846 14.72H45.3486C44.7886 16.432 43.8046 17.768 42.3966 18.728C41.0046 19.672 39.3646 20.144 37.4766 20.144C35.8766 20.144 34.4286 19.784 33.1326 19.064C31.8526 18.328 30.8366 17.312 30.0846 16.016C29.3486 14.72 28.9806 13.248 28.9806 11.6ZM55.9945 20.168C54.4265 20.168 52.9865 19.8 51.6745 19.064C50.3625 18.328 49.3225 17.312 48.5545 16.016C47.7865 14.704 47.4025 13.224 47.4025 11.576C47.4025 9.944 47.7865 8.48 48.5545 7.184C49.3225 5.872 50.3625 4.848 51.6745 4.112C52.9865 3.376 54.4265 3.008 55.9945 3.008C57.5785 3.008 59.0185 3.376 60.3145 4.112C61.6265 4.848 62.6585 5.872 63.4105 7.184C64.1785 8.48 64.5625 9.944 64.5625 11.576C64.5625 13.224 64.1785 14.704 63.4105 16.016C62.6585 17.312 61.6265 18.328 60.3145 19.064C59.0025 19.8 57.5625 20.168 55.9945 20.168ZM55.9945 17.168C57.0025 17.168 57.8905 16.944 58.6585 16.496C59.4265 16.032 60.0265 15.376 60.4585 14.528C60.8905 13.68 61.1065 12.696 61.1065 11.576C61.1065 10.456 60.8905 9.48 60.4585 8.648C60.0265 7.8 59.4265 7.152 58.6585 6.704C57.8905 6.256 57.0025 6.032 55.9945 6.032C54.9865 6.032 54.0905 6.256 53.3065 6.704C52.5385 7.152 51.9385 7.8 51.5065 8.648C51.0745 9.48 50.8585 10.456 50.8585 11.576C50.8585 12.696 51.0745 13.68 51.5065 14.528C51.9385 15.376 52.5385 16.032 53.3065 16.496C54.0905 16.944 54.9865 17.168 55.9945 17.168ZM72.8463 20.168C71.6783 20.168 70.6223 19.968 69.6783 19.568C68.7503 19.168 68.0143 18.592 67.4703 17.84C66.9263 17.088 66.6463 16.2 66.6303 15.176H70.2303C70.2783 15.864 70.5183 16.408 70.9503 16.808C71.3983 17.208 72.0063 17.408 72.7743 17.408C73.5583 17.408 74.1743 17.224 74.6223 16.856C75.0703 16.472 75.2943 15.976 75.2943 15.368C75.2943 14.872 75.1423 14.464 74.8383 14.144C74.5343 13.824 74.1503 13.576 73.6863 13.4C73.2383 13.208 72.6143 13 71.8143 12.776C70.7263 12.456 69.8383 12.144 69.1503 11.84C68.4783 11.52 67.8943 11.048 67.3983 10.424C66.9183 9.784 66.6783 8.936 66.6783 7.88C66.6783 6.888 66.9263 6.024 67.4223 5.288C67.9183 4.552 68.6143 3.992 69.5103 3.608C70.4063 3.208 71.4303 3.008 72.5823 3.008C74.3103 3.008 75.7103 3.432 76.7823 4.28C77.8703 5.112 78.4703 6.28 78.5823 7.784H74.8863C74.8543 7.208 74.6063 6.736 74.1423 6.368C73.6943 5.984 73.0943 5.792 72.3423 5.792C71.6863 5.792 71.1583 5.96 70.7583 6.296C70.3743 6.632 70.1823 7.12 70.1823 7.76C70.1823 8.208 70.3263 8.584 70.6143 8.888C70.9183 9.176 71.2863 9.416 71.7183 9.608C72.1663 9.784 72.7903 9.992 73.5903 10.232C74.6783 10.552 75.5663 10.872 76.2543 11.192C76.9423 11.512 77.5343 11.992 78.0303 12.632C78.5263 13.272 78.7743 14.112 78.7743 15.152C78.7743 16.048 78.5423 16.88 78.0782 17.648C77.6143 18.416 76.9343 19.032 76.0383 19.496C75.1423 19.944 74.0783 20.168 72.8463 20.168ZM93.0873 3.248V5.96H88.6233V20H85.2633V5.96H80.7993V3.248H93.0873ZM98.8988 17.336H104.419V20H95.5388V3.248H98.8988V17.336ZM109.914 3.248V20H106.554V3.248H109.914ZM127.562 20H124.202L116.594 8.504V20H113.234V3.224H116.594L124.202 14.744V3.224H127.562V20ZM134.243 5.96V10.16H139.883V12.824H134.243V17.264H140.603V20H130.883V3.224H140.603V5.96H134.243Z" fill="#4D84FF"/>
<defs>
<clipPath id="clip0_10_4879">
<rect width="20" height="20" fill="white"/>
</clipPath>
</defs>
</svg>
