<svg width="32" height="32" viewBox="0 0 32 32" fill="none" xmlns="http://www.w3.org/2000/svg">
<g clip-path="url(#clip0_185_13534)">
<path d="M31.0623 32H12.0498V28.3442C12.0498 20.9161 14.6845 14.299 18.5932 9.27388C18.7958 9.01313 18.9615 8.80006 19.079 8.649V0.9375C19.079 0.41975 19.4987 0 20.0165 0H21.0207C22.8758 0 24.4363 1.2855 24.8582 3.0125C29.4083 3.0125 31.5792 7.01969 30.8439 10.3391C30.6399 11.2599 29.8251 11.9167 28.8821 11.9167H26.9789V13.0335C26.9789 13.8161 27.603 14.3124 28.3657 14.1372C30.2626 13.7015 31.9997 15.1276 31.9997 17.0041C31.9997 18.6131 30.7 19.95 29.0539 19.95H26.7738C28.1352 21.2215 28.9873 23.0312 28.9873 25.0365V26.2206C30.7145 26.6425 31.9998 28.2026 31.9998 30.0573V31.0625C31.9998 31.5802 31.5801 32 31.0623 32Z" fill="#4D84FF" fill-opacity="0.8"/>
<path d="M12.0627 11.2504C12.0627 5.84904 7.97775 0.0785975 0.95475 0.00147251C0.430313 -0.00421499 0 0.414535 0 0.939035V19.9397C0 26.597 5.39388 31.9945 12.0499 32.0006L12.05 32.0007V32.0006C12.0537 32.0006 12.0574 32.0007 12.0611 32.0007L12.0627 11.2504Z" fill="#4D84FF" fill-opacity="0.6"/>
<path d="M31.0634 32C31.5811 32 32.0009 31.5802 32.0009 31.0625V30.0573C32.0009 28.2026 30.7156 26.6425 28.9884 26.2206V25.0365C28.9884 23.0312 28.1364 21.2215 26.7749 19.95H29.055C30.7011 19.95 32.0008 18.6131 32.0008 17.0041C32.0008 15.1276 30.2636 13.7015 28.3668 14.1372C27.6041 14.3124 26.98 13.8161 26.98 13.0335V11.9167H28.8831C29.8262 11.9167 30.641 11.2599 30.845 10.3391C31.5802 7.01975 29.4093 3.0125 24.8593 3.0125C24.4374 1.28556 22.8769 0 21.0218 0H20.0176C19.4998 0 19.0801 0.41975 19.0801 0.9375V32H31.0634Z" fill="#4D84FF"/>
</g>
<defs>
<clipPath id="clip0_185_13534">
<rect width="32" height="32" fill="white"/>
</clipPath>
</defs>
</svg>
