<svg width="40" height="40" viewBox="0 0 40 40" fill="none" xmlns="http://www.w3.org/2000/svg">
<g clip-path="url(#clip0_25_5737)">
<path d="M38.8281 40H15.0625V35.4303C15.0625 26.1451 18.3559 17.8738 23.2417 11.5923C23.495 11.2664 23.7021 11.0001 23.849 10.8113V1.17188C23.849 0.524687 24.3737 0 25.0209 0H26.2761C28.595 0 30.5456 1.60688 31.073 3.76562C36.7606 3.76562 39.4742 8.77461 38.5551 12.9239C38.3002 14.0748 37.2816 14.8959 36.1028 14.8959H33.7239V16.2919C33.7239 17.2701 34.504 17.8905 35.4573 17.6716C37.8284 17.1269 39.9999 18.9095 39.9999 21.2552C39.9999 23.2664 38.3752 24.9375 36.3177 24.9375H33.4675C35.1693 26.5269 36.2344 28.7891 36.2344 31.2956V32.7758C38.3934 33.3031 40 35.2533 40 37.5716V38.8281C40 39.4753 39.4754 40 38.8281 40Z" fill="#4D84FF" fill-opacity="0.8"/>
<path d="M15.0784 14.0632C15.0784 7.31148 9.97219 0.0984309 1.19344 0.00202469C0.537891 -0.00508468 0 0.518353 0 1.17398V24.9248C0 33.2465 6.74234 39.9934 15.0623 40.0009L15.0625 40.0011V40.0009C15.0671 40.0009 15.0717 40.0011 15.0763 40.0011L15.0784 14.0632Z" fill="#4D84FF" fill-opacity="0.6"/>
<path d="M38.8281 40C39.4753 40 40 39.4753 40 38.8281V37.5716C40 35.2533 38.3934 33.3031 36.2344 32.7758V31.2956C36.2344 28.7891 35.1694 26.5269 33.4675 24.9375H36.3177C38.3752 24.9375 39.9999 23.2664 39.9999 21.2552C39.9999 18.9095 37.8285 17.1269 35.4574 17.6716C34.504 17.8905 33.7239 17.2701 33.7239 16.2919V14.8959H36.1028C37.2817 14.8959 38.3002 14.0748 38.5551 12.9239C39.4742 8.77469 36.7606 3.76562 31.0731 3.76562C30.5456 1.60695 28.595 0 26.2761 0H25.0209C24.3737 0 23.849 0.524687 23.849 1.17188V40H38.8281Z" fill="#4D84FF"/>
</g>
<defs>
<clipPath id="clip0_25_5737">
<rect width="40" height="40" fill="white"/>
</clipPath>
</defs>
</svg>
