<svg width="32" height="32" viewBox="0 0 32 32" fill="none" xmlns="http://www.w3.org/2000/svg">
<path d="M9.5 12.5L16 17L22.5 12.5" stroke="white" stroke-width="3" stroke-linecap="round" stroke-linejoin="round"/>
<path d="M2.66669 22.6665V9.33317C2.66669 8.62593 2.94764 7.94765 3.44774 7.44755C3.94783 6.94746 4.62611 6.6665 5.33335 6.6665H26.6667C27.3739 6.6665 28.0522 6.94746 28.5523 7.44755C29.0524 7.94765 29.3334 8.62593 29.3334 9.33317V22.6665C29.3334 23.3737 29.0524 24.052 28.5523 24.5521C28.0522 25.0522 27.3739 25.3332 26.6667 25.3332H5.33335C4.62611 25.3332 3.94783 25.0522 3.44774 24.5521C2.94764 24.052 2.66669 23.3737 2.66669 22.6665Z" stroke="white" stroke-width="3"/>
</svg>
