<svg width="24" height="24" viewBox="0 0 24 24" fill="none" xmlns="http://www.w3.org/2000/svg">
<g clip-path="url(#clip0_4001_9530)">
<path d="M19.5609 12.8945C19.5609 12.4993 19.2404 12.1789 18.8451 12.1789C18.4498 12.1789 18.1293 12.4993 18.1293 12.8945C18.1293 16.3955 15.2813 19.2435 11.7803 19.2435C8.27955 19.2435 5.43156 16.3955 5.43156 12.8945C5.43156 12.4993 5.11108 12.1789 4.71578 12.1789C4.32044 12.1789 4 12.4993 4 12.8945C4 16.9435 7.10875 20.2792 11.0645 20.6417V22.5685H8.4085C8.01316 22.5685 7.69272 22.8889 7.69272 23.2843C7.69272 23.6796 8.01316 24 8.4085 24H15.1525C15.5476 24 15.868 23.6796 15.868 23.2842C15.868 22.8889 15.5476 22.5685 15.1525 22.5685H12.4961V20.6417C16.4521 20.2793 19.5609 16.9435 19.5609 12.8945Z" fill="white"/>
<path d="M11.7803 17.4774C14.3073 17.4774 16.3633 15.4215 16.3633 12.8945V4.58278C16.3633 2.05589 14.3073 0 11.7803 0C9.25346 0 7.19757 2.05594 7.19757 4.58278V12.8945C7.19757 15.4215 9.25351 17.4774 11.7803 17.4774ZM8.6289 4.58278C8.6289 2.84512 10.0426 1.43152 11.7803 1.43152C13.518 1.43152 14.9317 2.84508 14.9317 4.58278V12.8945C14.9317 14.6321 13.518 16.0459 11.7803 16.0459C10.0426 16.0459 8.6289 14.6321 8.6289 12.8945V4.58278Z" fill="white"/>
</g>
<defs>
<clipPath id="clip0_4001_9530">
<rect width="24" height="24" fill="white"/>
</clipPath>
</defs>
</svg>
