<svg width="24" height="24" viewBox="0 0 24 24" fill="none" xmlns="http://www.w3.org/2000/svg">
<path d="M21 4C20.7348 4 20.4804 4.10536 20.2929 4.29289C20.1054 4.48043 20 4.73478 20 5V6.004C19.0679 4.76245 17.86 3.75449 16.4717 3.05962C15.0833 2.36476 13.5525 2.00202 12 2C9.73095 1.98947 7.52652 2.75512 5.75251 4.16989C3.97851 5.58466 2.74158 7.56349 2.247 9.778C2.18812 10.0367 2.23443 10.3082 2.37574 10.5328C2.51705 10.7574 2.74178 10.9166 3.0005 10.9755C3.25922 11.0344 3.53073 10.9881 3.75531 10.8468C3.97988 10.7055 4.13912 10.4807 4.198 10.222C4.59343 8.45037 5.58286 6.86727 7.00204 5.73548C8.42123 4.6037 10.1848 3.99132 12 4C14.885 4 17.502 5.565 18.914 8H17C16.7348 8 16.4804 8.10536 16.2929 8.29289C16.1054 8.48043 16 8.73478 16 9C16 9.26522 16.1054 9.51957 16.2929 9.70711C16.4804 9.89464 16.7348 10 17 10H21C21.2652 10 21.5196 9.89464 21.7071 9.70711C21.8946 9.51957 22 9.26522 22 9V5C22 4.73478 21.8946 4.48043 21.7071 4.29289C21.5196 4.10536 21.2652 4 21 4ZM3 20C3.26522 20 3.51957 19.8946 3.70711 19.7071C3.89464 19.5196 4 19.2652 4 19V17.975C4.92469 19.226 6.13051 20.242 7.52017 20.9412C8.90982 21.6404 10.4444 22.0031 12 22C14.269 22.0105 16.4735 21.2449 18.2475 19.8301C20.0215 18.4153 21.2584 16.4365 21.753 14.222C21.8119 13.9633 21.7656 13.6918 21.6243 13.4672C21.483 13.2426 21.2582 13.0834 20.9995 13.0245C20.7408 12.9656 20.4693 13.0119 20.2447 13.1532C20.0201 13.2945 19.8609 13.5193 19.802 13.778C19.4066 15.5496 18.4171 17.1327 16.998 18.2645C15.5788 19.3963 13.8152 20.0087 12 20C9.114 20 6.522 18.472 5.092 16H7C7.26522 16 7.51957 15.8946 7.70711 15.7071C7.89464 15.5196 8 15.2652 8 15C8 14.7348 7.89464 14.4804 7.70711 14.2929C7.51957 14.1054 7.26522 14 7 14H3C2.73478 14 2.48043 14.1054 2.29289 14.2929C2.10536 14.4804 2 14.7348 2 15V19C2 19.2652 2.10536 19.5196 2.29289 19.7071C2.48043 19.8946 2.73478 20 3 20Z" fill="white"/>
</svg>
